<svg id="MENU" xmlns="http://www.w3.org/2000/svg" width="1088" height="200" viewBox="0 0 1088 200">
  <rect id="Rectángulo_10" data-name="Rectángulo 10" width="1088" height="200" fill="#2e2e2e"/>
  <path id="ban-solid" d="M39.579,8A31.579,31.579,0,1,0,71.158,39.579,31.579,31.579,0,0,0,39.579,8ZM56.146,23.012a23.432,23.432,0,0,1,2.633,30L26.141,20.379a23.432,23.432,0,0,1,30,2.633ZM23.012,56.146a23.432,23.432,0,0,1-2.633-30L53.017,58.779A23.432,23.432,0,0,1,23.012,56.146Z" transform="translate(152 22.842)" fill="#5d5d5d"/>
  <g id="Grupo_5" data-name="Grupo 5" transform="translate(1107 -1562)">
    <path id="desktop-solid" d="M73.333,0H6.667A6.668,6.668,0,0,0,0,6.667V51.111a6.668,6.668,0,0,0,6.667,6.667H33.333l-2.222,6.667h-10a3.333,3.333,0,1,0,0,6.667H58.889a3.333,3.333,0,1,0,0-6.667h-10l-2.222-6.667H73.333A6.668,6.668,0,0,0,80,51.111V6.667A6.668,6.668,0,0,0,73.333,0ZM71.111,48.889H8.889v-40H71.111Z" transform="translate(-650 1588)" fill="#5d5d5d"/>
    <path id="laptop-solid" d="M78,52H47.693A3.94,3.94,0,0,1,43.6,56H36a4.245,4.245,0,0,1-4.1-4H2a2.006,2.006,0,0,0-2,2v2a8.024,8.024,0,0,0,8,8H72a8.024,8.024,0,0,0,8-8V54A2.006,2.006,0,0,0,78,52ZM72,6a6.018,6.018,0,0,0-6-6H14A6.018,6.018,0,0,0,8,6V48H72ZM64,40H16V8H64Z" transform="translate(-538 1592)" fill="#5d5d5d"/>
    <path id="mobile-alt-solid" d="M34,0H6A6,6,0,0,0,0,6V58a6,6,0,0,0,6,6H34a6,6,0,0,0,6-6V6A6,6,0,0,0,34,0ZM20,60a4,4,0,1,1,4-4A4,4,0,0,1,20,60ZM34,46.5A1.5,1.5,0,0,1,32.5,48H7.5A1.5,1.5,0,0,1,6,46.5V7.5A1.5,1.5,0,0,1,7.5,6h25A1.5,1.5,0,0,1,34,7.5Z" transform="translate(-426 1592)" fill="#5d5d5d"/>
  </g>
  <path id="hand-holding-usd-solid" d="M37.883,21.221l7.353,2.1A1.237,1.237,0,0,1,44.9,25.75H40.074a3.783,3.783,0,0,1-1.515-.324,1.823,1.823,0,0,0-2.074.294l-2.574,2.574A1.764,1.764,0,0,0,34.133,31a10.746,10.746,0,0,0,4.677,1.691v2.6a2.36,2.36,0,0,0,2.353,2.353h2.353a2.36,2.36,0,0,0,2.353-2.353V32.706a8.274,8.274,0,0,0,7.25-9.265,8.629,8.629,0,0,0-6.309-7.015l-7.353-2.1a1.237,1.237,0,0,1,.338-2.426h4.824a3.783,3.783,0,0,1,1.515.324,1.823,1.823,0,0,0,2.074-.294L50.78,9.353a1.764,1.764,0,0,0-.221-2.706,10.746,10.746,0,0,0-4.677-1.691v-2.6A2.36,2.36,0,0,0,43.53,0H41.177a2.36,2.36,0,0,0-2.353,2.353V4.941a8.274,8.274,0,0,0-7.25,9.265A8.629,8.629,0,0,0,37.883,21.221Zm40.633,27.03a4.416,4.416,0,0,0-5.927,0L59.765,59.118a8.553,8.553,0,0,1-5.559,2.059H37.78a2.357,2.357,0,0,1,0-4.706H48.648a4.71,4.71,0,0,0,.235-9.412H26.662a15.724,15.724,0,0,0-10.28,3.868L9.927,56.471H2.221A2.3,2.3,0,0,0,0,58.824V72.942a2.3,2.3,0,0,0,2.221,2.353H51.765a8.611,8.611,0,0,0,5.559-2.059l21-17.794a4.886,4.886,0,0,0,.191-7.191Z" transform="translate(894 19)" fill="#5d5d5d"/>
  <text id="Sin_compromisos_cancela_online_cuando_quieras" data-name="Sin compromisos,
cancela online cuando quieras" transform="translate(192 141)" fill="#fff" font-size="20" font-family="Arimo-Regular, Arimo"><tspan x="-79.468" y="0">Sin compromisos,</tspan><tspan x="-135.098" y="23">cancela online cuando quieras</tspan></text>
  <text id="Ve_desde_donde_quieras" data-name="Ve desde donde quieras" transform="translate(589 141)" fill="#fff" font-size="20" font-family="Arimo-Regular, Arimo"><tspan x="-107.866" y="0">Ve desde donde quieras</tspan></text>
  <text id="Elige_tu_precio" data-name="Elige tu precio" transform="translate(934 141)" fill="#fff" font-size="20" font-family="Arimo-Regular, Arimo"><tspan x="-63.369" y="0">Elige tu precio</tspan></text>
</svg>
